<svg width="22" height="22" viewBox="0 0 22 22" fill="none" xmlns="http://www.w3.org/2000/svg">
<rect width="22" height="22" rx="11" fill="white"/>
<path fill-rule="evenodd" clip-rule="evenodd" d="M8.57025 6.77821C7.95514 6.82879 7.53296 7.02099 7.1938 7.40489C7.1023 7.50845 6.76208 8.04176 6.4377 8.59003L5.84797 9.58682L5.25439 9.7184C4.92792 9.79076 4.57406 9.896 4.46808 9.95228C4.26073 10.0623 4.08954 10.2724 4.02535 10.4954C4.00336 10.5719 3.98535 11.0957 3.98535 11.6594C3.98535 12.8 4.00774 12.932 4.24297 13.179C4.40876 13.3531 4.59907 13.4364 5.10161 13.555L5.45963 13.6394C5.6977 14.171 6.19165 14.5629 6.78478 14.6586L6.78685 14.6591C6.86854 14.6754 6.95576 14.6826 7.04592 14.6811L7.06741 14.6812C7.73779 14.6812 8.32067 14.3066 8.6181 13.7552H11.2513H14.8185C15.1159 14.3066 15.6988 14.6812 16.3692 14.6812C17.1265 14.6812 17.7721 14.2031 18.0207 13.5322C18.3747 13.4764 18.7026 13.3589 18.8761 13.0647C18.9559 12.9431 18.9984 12.8008 18.9984 12.6554V11.8382V11.0446C18.9984 10.8822 18.9635 10.7216 18.896 10.5737C18.7265 10.2417 17.9581 10.1181 16.7354 9.92148C16.4085 9.8689 16.0491 9.81109 15.66 9.74267C15.3603 9.68997 15.1 9.63059 15.0817 9.61064C15.0633 9.59074 14.7135 9.09336 14.3044 8.5054C13.8691 7.87999 13.4818 7.3674 13.3708 7.27012C13.1172 7.04762 12.7372 6.87272 12.3933 6.82014C12.0444 6.76683 9.10165 6.73453 8.57025 6.77821ZM8.53676 8.6057L8.52575 9.53363L8.29393 9.5444C7.56779 9.55031 6.97532 9.54114 6.97724 9.52401C6.97921 9.50687 7.18647 9.15357 7.43778 8.73895L7.44004 8.73522C8.05749 7.71662 8.08105 7.67776 8.3968 7.67776H8.54777L8.53676 8.6057ZM12.3364 7.76484C12.8938 7.88466 13.2866 8.55137 13.6149 9.10857C13.7112 9.272 13.802 9.426 13.8897 9.55403H12.218H9.26766V8.61067V7.66736H10.924C10.924 7.66736 11.6887 7.62562 12.3364 7.76484ZM17.691 12.9202C17.691 13.6495 17.0997 14.2408 16.3704 14.2408C15.641 14.2408 15.0498 13.6495 15.0498 12.9202C15.0498 12.1909 15.641 11.5996 16.3704 11.5996C17.0997 11.5996 17.691 12.1909 17.691 12.9202ZM7.06765 14.2408C7.79698 14.2408 8.38822 13.6495 8.38822 12.9202C8.38822 12.1909 7.79698 11.5996 7.06765 11.5996C6.33831 11.5996 5.74707 12.1909 5.74707 12.9202C5.74707 13.6495 6.33831 14.2408 7.06765 14.2408Z" fill="#242629" fill-opacity="0.8"/>
<rect x="0.5" y="0.5" width="21" height="21" rx="10.5" stroke="#242629" stroke-opacity="0.8"/>
</svg>
