<svg viewBox="0 0 17 20" fill="none" xmlns="http://www.w3.org/2000/svg">
<path d="M16 8.3335C16 14.1668 8.5 19.1668 8.5 19.1668C8.5 19.1668 1 14.1668 1 8.3335C1 6.34437 1.79018 4.43672 3.1967 3.03019C4.60322 1.62367 6.51088 0.833496 8.5 0.833496C10.4891 0.833496 12.3968 1.62367 13.8033 3.03019C15.2098 4.43672 16 6.34437 16 8.3335Z" stroke="#47609C" stroke-width="0.833333" stroke-linecap="round" stroke-linejoin="round"/>
<path d="M8.5 10.8335C9.88071 10.8335 11 9.71421 11 8.3335C11 6.95278 9.88071 5.8335 8.5 5.8335C7.11929 5.8335 6 6.95278 6 8.3335C6 9.71421 7.11929 10.8335 8.5 10.8335Z" stroke="#47609C" stroke-width="0.833333" stroke-linecap="round" stroke-linejoin="round"/>
</svg>
