<svg viewBox="0 0 26 22" fill="none" xmlns="http://www.w3.org/2000/svg">
<path d="M1.59399 9.58107L17.0813 3.05109C18.6101 2.37088 23.7947 0.194223 23.7947 0.194223C23.7947 0.194223 26.1876 -0.758065 25.9882 1.55464C25.9217 2.50692 25.39 5.83993 24.8582 9.44502L23.1965 20.1243C23.1965 20.1243 23.0636 21.6887 21.9336 21.9608C20.8036 22.2329 18.9425 21.0085 18.6101 20.7364C18.3442 20.5324 13.6249 17.4715 11.8967 15.975C11.4314 15.5669 10.8997 14.7506 11.9632 13.7983C14.3561 11.5537 17.2143 8.76482 18.9425 6.99628C19.7401 6.18004 20.5377 4.27546 17.2143 6.58816L7.8421 13.0501C7.8421 13.0501 6.77859 13.7303 4.78452 13.1181C2.79044 12.506 0.464017 11.6897 0.464017 11.6897C0.464017 11.6897 -1.13124 10.6694 1.59399 9.58107Z" fill="#47609C"/>
</svg>
