<svg viewBox="0 0 23 23" fill="none" xmlns="http://www.w3.org/2000/svg">
<path d="M19.773 3.08728C17.692 1.09638 14.9252 0 11.9823 0C9.0394 0 6.27258 1.09638 4.19157 3.08728C2.11056 5.07817 0.964607 7.72511 0.964607 10.5406C0.964607 12.3241 1.43651 14.0767 2.33225 15.6291L0 22.0041L6.6634 19.7729C8.28615 20.6297 10.1181 21.0812 11.9823 21.0812C14.9252 21.0812 17.692 19.9848 19.7729 17.994C21.854 16.0031 23 13.3561 23 10.5406C23 7.72506 21.854 5.07813 19.773 3.08728ZM17.429 14.4563L16.1571 15.6732C15.1034 16.6812 12.1136 15.4555 9.47932 12.9352C6.84502 10.415 5.56371 7.55475 6.61744 6.54664L7.88936 5.3298C8.15278 5.07778 8.5799 5.07778 8.84332 5.3298L10.4332 6.85087C10.6967 7.10289 10.6967 7.51151 10.4332 7.76353L9.47928 8.67618C10.4046 10.5451 11.9776 12.0499 13.9311 12.9352L14.8851 12.0226C15.1485 11.7705 15.5756 11.7705 15.839 12.0226L17.429 13.5436C17.6924 13.7957 17.6924 14.2043 17.429 14.4563Z" fill="white"/>
</svg>
