<svg width="20" height="20" viewBox="0 0 20 20" fill="none" xmlns="http://www.w3.org/2000/svg">
    <path
          d="M9.52848 6.54682L9.52844 6.54685L9.53054 6.54881C9.67053 6.67947 9.83653 6.74622 10.0249 6.74622C10.2205 6.74622 10.3909 6.68025 10.5318 6.54881L10.5318 6.54885L10.5338 6.54682C10.6743 6.40637 10.7457 6.23524 10.7457 6.03789C10.7457 5.84054 10.6743 5.66942 10.5338 5.52897C10.3934 5.38852 10.2223 5.31706 10.0249 5.31706C9.83469 5.31706 9.66805 5.38939 9.52848 5.52897C9.38803 5.66942 9.31657 5.84054 9.31657 6.03789C9.31657 6.23524 9.38803 6.40637 9.52848 6.54682ZM10.4999 14.6462H10.5832V14.5629V8.52539V8.44206H10.4999H9.5624H9.47907V8.52539V14.5629V14.6462H9.5624H10.4999Z"
          fill="#242629" stroke="#242629" stroke-width="0.166667"/>
    <circle  cx="10" cy="10" r="9.58333" stroke="#242629" stroke-width="0.833333"/>
</svg>
