<svg width="53" height="46" viewBox="0 0 53 46" fill="none" xmlns="http://www.w3.org/2000/svg">
<g clip-path="url(#clip0)">
<path d="M2.58186 44.1217L1.06757 39.3147C0.937544 38.5473 0.562512 37.8444 0 37.3137L0 37.2753H1.87771C1.86215 37.5945 1.91377 37.9133 2.02914 38.2107L3.94471 44.2673L5.459 39.3147C5.70129 38.548 5.95871 37.674 5.25457 37.306V37.2753H7.07171C7.02056 37.7241 7.0858 38.1786 7.261 38.594L9.04786 44.229L10.494 39.468C10.7287 38.7013 11.1527 37.6663 10.1533 37.3213V37.2753H12.1143L9.41129 46.23C8.23014 45.4097 8.13929 45.4633 7.71529 44.137L6.29943 39.652L4.293 46.23C3.127 45.3713 3.02857 45.4633 2.58186 44.1217Z" fill="#0B0B0B"/>
<path d="M14.5069 37.0607V40.503C14.7451 40.236 15.0377 40.0243 15.3645 39.8827C15.6912 39.7411 16.0444 39.6729 16.3997 39.6827C18.179 39.6827 18.603 40.7637 18.603 42.0287V44.3977C18.603 44.9957 18.5197 45.4787 19.0876 45.8007V45.839H16.9903V45.8007C17.5506 45.471 17.4673 45.034 17.4673 44.3977V42.4197C17.4673 41.3617 17.1341 40.5413 16.0211 40.5413C14.9081 40.5413 14.5069 41.1777 14.5069 42.343V44.3977C14.5069 44.9957 14.4311 45.4787 14.999 45.8007V45.839H12.8714V45.8007C13.4393 45.471 13.3636 45.034 13.3636 44.3977V38.7167C13.3636 38.1187 13.4393 37.6357 12.8714 37.3137V37.2753H13.7119C13.8518 37.2987 13.9951 37.2917 14.1322 37.2547C14.2693 37.2177 14.397 37.1515 14.5069 37.0607Z" fill="#0B0B0B"/>
<path d="M20.2839 38.2107C20.2956 37.9978 20.3895 37.7981 20.5453 37.6547C20.7011 37.5113 20.9063 37.4356 21.1167 37.444C21.2194 37.4439 21.3211 37.4649 21.4155 37.5058C21.5099 37.5467 21.5951 37.6066 21.6659 37.6819C21.7368 37.7572 21.7917 37.8463 21.8275 37.9438C21.8632 38.0413 21.879 38.1451 21.8739 38.249C21.878 38.4586 21.8013 38.6617 21.6599 38.8149C21.5184 38.9681 21.3236 39.0594 21.1167 39.0693C21.0058 39.0704 20.8957 39.0488 20.7932 39.0058C20.6907 38.9629 20.5978 38.8994 20.52 38.8193C20.4423 38.7391 20.3813 38.6439 20.3407 38.5393C20.3001 38.4347 20.2808 38.323 20.2839 38.2107ZM21.7149 39.6443V44.3977C21.7149 44.9957 21.6391 45.4787 22.207 45.8007V45.839H20.087V45.8007C20.6549 45.471 20.5791 45.034 20.5791 44.3977V41.285C20.5791 40.687 20.6549 40.2193 20.087 39.8897H20.8441C21.1519 39.9181 21.4591 39.8308 21.7073 39.6443H21.7149Z" fill="#0B0B0B"/>
<path d="M26.182 45.1567C26.3599 45.1442 26.5342 45.1001 26.6969 45.0263L26.0154 45.9463C25.8834 45.9902 25.7455 46.0134 25.6066 46.0153C23.6153 46.0153 23.797 43.93 23.797 43.424V40.71H22.9187V40.2423C24.1301 40.0353 24.433 39.123 24.433 37.9423H24.9857V39.8667H26.1971C26.3624 39.8819 26.5289 39.8556 26.6817 39.79H26.7196V40.9783H26.659C26.5364 40.8662 26.3902 40.7838 26.2314 40.7373C26.0727 40.6909 25.9057 40.6815 25.7429 40.71H24.9857V43.3167C24.9857 43.815 24.804 45.1567 26.182 45.1567Z" fill="#0B0B0B"/>
<path d="M30.3766 40.5413C29.9859 40.5206 29.6013 40.6457 29.2957 40.893C28.99 41.1403 28.7846 41.4926 28.7184 41.883H32.0423C31.9948 41.4824 31.7933 41.117 31.4815 40.8658C31.1697 40.6147 30.7727 40.4981 30.3766 40.5413ZM31.2397 45.1413C31.9857 45.1536 32.7149 44.9164 33.3143 44.4667L32.6707 45.6933C32.1047 45.9203 31.5001 46.0323 30.8914 46.023C28.7714 46 27.2571 44.62 27.2571 42.803C27.2479 42.3785 27.3259 41.9567 27.486 41.5643C27.6462 41.1719 27.8851 40.8174 28.1876 40.5234C28.4901 40.2293 28.8496 40.0021 29.2434 39.856C29.6371 39.71 30.0565 39.6483 30.475 39.675C30.8624 39.656 31.2494 39.7198 31.6108 39.8623C31.9722 40.0047 32.3 40.2225 32.5728 40.5017C32.8456 40.7808 33.0573 41.1149 33.1942 41.4824C33.3311 41.8498 33.3901 42.2423 33.3673 42.6343H28.6654C28.6529 42.9762 28.7116 43.3169 28.8377 43.6343C28.9638 43.9518 29.1544 44.2387 29.3972 44.4767C29.64 44.7146 29.9295 44.8981 30.247 45.0152C30.5644 45.1324 30.9027 45.1806 31.2397 45.1567V45.1413Z" fill="#0B0B0B"/>
<path d="M35.0557 39.6827H35.0936C35.1141 39.915 35.1703 40.1426 35.2601 40.3573L36.7744 44.3133L37.948 41.2467C38.1297 40.779 38.4477 40.1503 37.8344 39.882H39.5153V40.0813C39.5538 40.2869 39.6147 40.4875 39.697 40.6793L41.022 44.3517L42.2183 41.285C42.3849 40.8403 42.7331 40.2423 42.0366 39.9203H43.7629L41.1886 46.0767C40.8638 45.9491 40.5751 45.7425 40.3479 45.475C40.1208 45.2076 39.9622 44.8876 39.8863 44.5433L38.7809 41.5457L37.0167 46.0767C36.6782 45.9577 36.3743 45.7552 36.1324 45.4875C35.8905 45.2198 35.7182 44.8953 35.6312 44.5433L34.2229 40.871C34.1172 40.4727 33.8758 40.1252 33.5414 39.8897H33.8746C34.2799 39.9447 34.6922 39.8724 35.0557 39.6827Z" fill="#0B0B0B"/>
<path d="M44.732 38.2107C44.7437 37.9964 44.8387 37.7956 44.9961 37.6519C45.1536 37.5083 45.3608 37.4336 45.5724 37.444C45.6751 37.4439 45.7768 37.4649 45.8712 37.5058C45.9656 37.5467 46.0508 37.6066 46.1217 37.682C46.1925 37.7573 46.2474 37.8464 46.2832 37.9438C46.3189 38.0413 46.3347 38.1452 46.3296 38.249C46.3337 38.4587 46.257 38.6617 46.1156 38.8149C45.9742 38.9681 45.7793 39.0594 45.5724 39.0694C45.4611 39.0704 45.3508 39.0488 45.2478 39.006C45.1449 38.9631 45.0515 38.8997 44.9732 38.8197C44.8948 38.7397 44.8331 38.6445 44.7917 38.5399C44.7503 38.4353 44.73 38.3234 44.732 38.2107ZM46.1857 39.6444V44.3977C46.1857 44.9957 46.11 45.4787 46.6703 45.8007V45.839H44.5427V45.8007C45.103 45.471 45.0273 45.034 45.0273 44.3977V41.285C45.0273 40.687 45.103 40.2194 44.5427 39.8897H45.2999C45.6153 39.9255 45.9322 39.8378 46.1857 39.6444Z" fill="#0B0B0B"/>
<path d="M49.3203 37.0607H49.3581V44.39C49.3581 44.988 49.2673 45.471 49.8351 45.793V45.8313H47.7V45.8007C48.2527 45.471 48.177 45.034 48.177 44.3977V38.7167C48.177 38.1187 48.2527 37.6357 47.7 37.3137V37.2753H48.4571C48.6078 37.3055 48.7631 37.3019 48.9122 37.2648C49.0613 37.2277 49.2006 37.158 49.3203 37.0607Z" fill="#0B0B0B"/>
<path d="M52.4851 37.0607H52.523V44.39C52.523 44.988 52.4321 45.471 52.9924 45.793V45.8313H50.88V45.8007C51.4327 45.471 51.357 45.034 51.357 44.3977V38.7167C51.357 38.1187 51.4327 37.6357 50.88 37.3137V37.2753H51.6371C51.7854 37.3032 51.9379 37.2984 52.0842 37.2614C52.2305 37.2243 52.3672 37.1559 52.4851 37.0607Z" fill="#0B0B0B"/>
<path d="M5.34543 4.95266L16.3619 33.235H17.6717L6.06472 3.44232H6.042L5.34543 4.95266Z" fill="#0B0B0B"/>
<path d="M3.64943 8.63265L13.2349 33.235H14.5447L4.36871 7.12231H4.346L3.64943 8.63265Z" fill="#0B0B0B"/>
<path d="M48.654 7.12231H48.6313L38.4553 33.235H39.7651L49.3506 8.63265L48.654 7.12231Z" fill="#0B0B0B"/>
<path d="M7.04143 1.28035L19.4964 33.235H20.7987L7.76072 -0.22998H7.738L7.04143 1.28035Z" fill="#0B0B0B"/>
<path d="M46.958 3.44232H46.9353L36.1309 31.1573L35.8659 31.8473L35.6009 31.1573L24.9479 3.83332H24.9251L24.2816 5.48166L35.1011 33.235H36.6381L47.6546 4.95266L46.958 3.44232Z" fill="#0B0B0B"/>
<path d="M23.3881 7.84302H23.3654L22.7219 9.49135L31.9741 33.235H33.284L23.3881 7.84302Z" fill="#0B0B0B"/>
<path d="M24.9479 19.8796H24.9251L21.1697 29.5166L21.8133 31.165H21.836L25.5914 21.528L24.9479 19.8796Z" fill="#0B0B0B"/>
<path d="M23.3881 15.87H23.3654L19.61 25.4993L20.246 27.1477H20.2687L24.0241 17.5183L23.3881 15.87Z" fill="#0B0B0B"/>
<path d="M21.8209 11.8527H21.7981L18.0427 21.4897L18.6863 23.138H18.709L22.4644 13.5087L21.8209 11.8527Z" fill="#0B0B0B"/>
<path d="M45.2393 -0.22998L36.1309 23.138L35.8658 23.8204L35.6009 23.138L26.5151 -0.176314H26.4924L25.8489 1.47202L35.8583 27.1477H35.881L45.9661 1.28035L45.2696 -0.22998H45.2393Z" fill="#0B0B0B"/>
</g>
<defs>
<clipPath id="clip0">
<rect width="53" height="46" fill="white"/>
</clipPath>
</defs>
</svg>
